<svg version="1.1" xmlns="http://www.w3.org/2000/svg" width="727.55" height="737.7" viewBox="0 0 727.55 737.7">
  <g transform="rotate(0 0 0) scale(.5 .5) translate(0 0)">
    <path fill="#9AC323" d="M1340.4,672.1C1211.8,543.5,926.6,610.6,798,895.8c-24.1,53.5-35.3,97.3-37.4,133.3 c3.6-9,7.6-17.2,12.1-24.4c0.5-0.7,0.9-1.4,1.4-2.1c1.7-2.7,3.5-5.3,5.4-7.7c0.7-1,1.5-1.8,2.3-2.8c1.7-2,3.3-3.9,5.1-5.7 c0.9-0.9,1.9-1.8,2.8-2.7c1.7-1.5,3.4-3,5.2-4.3c1-0.8,2.1-1.6,3.2-2.3c1.8-1.2,3.6-2.2,5.5-3.1c1.1-0.6,2.2-1.2,3.3-1.6 c2-0.9,4.2-1.5,6.3-2.1c1-0.3,2-0.7,3.1-0.9c3.2-0.6,6.5-1,9.8-1c0,0,0.2,0,0.5,0.1c0.5,0.1,1.6,0.5,3.1,0.9 c0.2,0.1,0.3,0.1,0.5,0.2c0.7,0.2,1.6,0.5,2.5,0.8c0.2,0.1,0.3,0.1,0.5,0.2c1,0.3,2.1,0.7,3.3,1.1c0.2,0.1,0.3,0.1,0.4,0.2 c1.3,0.4,2.7,0.9,4.1,1.5c0.1,0,0.2-0.1,0.3-0.1c1.6,0.6,3.2,1.7,4.9,1.7c0,0,0,0,0,0c43,13,143.1,65.5,187.1,176.1 c0,0.1,0.1,0.3,0.1,0.4c1.8,4.5,3.5,9.2,5.1,13.9c0,0.1,0,0.1,0.1,0.2C1344.5,1070.6,1454.3,786,1340.4,672.1z"/>
    <path fill="#E44486" d="M826.4,968.7c0.6,0.2,1.6,0.5,3.1,0.9C828,969.1,826.9,968.8,826.4,968.7z"/>
    <path fill="#E44486" d="M816.1,969.6c3.2-0.6,6.5-1,9.8-1C822.5,968.5,819.3,968.9,816.1,969.6z"/>
    <path fill="#E44486" d="M797.9,977.2c1.8-1.2,3.6-2.2,5.5-3.1C801.6,975.1,799.7,976.1,797.9,977.2z"/>
    <path fill="#E44486" d="M833.1,970.7c1,0.3,2.1,0.7,3.3,1.1C835.2,971.4,834.1,971,833.1,970.7z"/>
    <path fill="#E44486" d="M806.7,972.5c2-0.9,4.2-1.5,6.3-2.1C810.9,971,808.8,971.6,806.7,972.5z"/>
    <path fill="#E44486" d="M789.6,983.8c1.7-1.5,3.4-2.9,5.2-4.3C793,980.8,791.3,982.2,789.6,983.8z"/>
    <path fill="#E44486" d="M781.7,992.1c1.7-2,3.4-3.9,5.1-5.7C785,988.2,783.3,990.1,781.7,992.1z"/>
    <path fill="#E44486" d="M774,1002.6c1.7-2.7,3.5-5.3,5.4-7.7C777.5,997.3,775.8,999.9,774,1002.6z"/>
    <path fill="#E44486" d="M830,969.7c0.7,0.2,1.6,0.5,2.5,0.8C831.6,970.2,830.8,970,830,969.7z"/>
    <path fill="#E44486" d="M909.8,1192.2c0,0-158.7-7.4-149.3-163.1c3.6-9,7.6-17.2,12.1-24.4c-4.5,7.3-8.5,15.4-12.1,24.4 c-37.1,93-25.9,269.1,54.2,353.2c111.8,117.4,268.4,16.8,234.9-173.3c-2.7-15.4-6.6-29.8-11.2-43.5 C998.8,1177.8,956,1187.1,909.8,1192.2z"/>
    <path fill="#E44486" d="M1033.3,1151.5c1.8,4.5,3.5,9.1,5.1,13.8C1036.8,1160.6,1035.1,1156,1033.3,1151.5z"/>
    <path fill="#E44486" d="M1033.2,1151.3c-44-110.6-144.1-159.5-187.1-175.9C889.1,991.8,989.3,1040.7,1033.2,1151.3z"/>
    <path fill="#E44486" d="M841.2,973.5c1.6,0.6,3.2,1.2,4.9,1.8C844.4,974.7,842.7,974.1,841.2,973.5z"/>
    <path fill="#E44486" d="M836.8,972c1.3,0.4,2.7,0.9,4.1,1.5C839.5,972.9,838.1,972.4,836.8,972z"/>
    <path fill="#B54878" d="M1033.3,1151.5c0-0.1-0.1-0.4-0.1-0.4C989.3,1040.6,889.1,988,846.1,975c0,0,0,0,0,0 c-1.7,0-3.4-1.1-4.9-1.7c-0.1,0-0.2,0-0.3,0c-1.5-0.5-2.8-1-4.1-1.4c-0.2-0.1-0.3-0.1-0.4-0.1c-1.2-0.4-2.3-0.8-3.3-1.1 c-0.2-0.1-0.4-0.1-0.5-0.2c-0.9-0.3-1.8-0.6-2.5-0.8c-0.2-0.1-0.3-0.1-0.5-0.2c-1.5-0.4-2.6-0.8-3.1-0.9c-0.3-0.1-0.5-0.1-0.5-0.1 c-3.4,0-6.6,0.4-9.8,1c-1,0.2-2,0.6-3.1,0.9c-2.1,0.6-4.2,1.2-6.3,2.1c-1.1,0.5-2.2,1.1-3.3,1.6c-1.9,0.9-3.7,1.9-5.5,3.1 c-1.1,0.7-2.1,1.5-3.2,2.3c-1.8,1.3-3.5,2.7-5.2,4.3c-0.9,0.9-1.9,1.7-2.8,2.7c-1.7,1.8-3.4,3.7-5.1,5.7c-0.8,0.9-1.5,1.8-2.3,2.8 c-1.9,2.4-3.6,5-5.4,7.7c-0.5,0.7-0.9,1.4-1.4,2.1c-4.5,7.3-8.5,15.4-12.1,24.4c-9.5,155.7,149.3,163.1,149.3,163.1 c46.2-5.1,89-14.4,128.6-26.7c0,0,0,0,0,0c0,0,0,0,0,0c0-0.1,0-0.1-0.1-0.2C1036.8,1160.6,1035.1,1156,1033.3,1151.5z"/>
    <path fill="#FFC03B" d="M420.1,1151.5c0-0.1,0.1-0.1,0.1-0.2c44-110.6,144.1-159.5,187.1-175.9c0,0,0,0,0.1,0 c1.7-0.7,3.4-1.3,4.9-1.8c0.1,0,0.2-0.1,0.3-0.1c1.5-0.5,2.8-1,4.1-1.5c0.2-0.1,0.3-0.1,0.4-0.2c1.2-0.4,2.3-0.8,3.3-1.1 c0.2-0.1,0.4-0.1,0.5-0.2c0.9-0.3,1.8-0.6,2.5-0.8c0.2-0.1,0.3-0.1,0.5-0.2c1.5-0.5,2.6-0.8,3.1-0.9c0.3-0.1,0.5-0.1,0.5-0.1 c3.4,0,6.6,0.4,9.8,1c1,0.2,2,0.6,3.1,0.9c2.1,0.6,4.2,1.2,6.3,2.1c1.1,0.5,2.2,1.1,3.3,1.6c1.9,0.9,3.7,1.9,5.5,3.1 c1.1,0.7,2.1,1.5,3.2,2.3c1.8,1.3,3.5,2.7,5.2,4.3c1,0.9,1.9,1.8,2.8,2.7c1.7,1.8,3.4,3.7,5.1,5.6c0.8,0.9,1.5,1.8,2.3,2.8 c1.9,2.4,3.6,5,5.4,7.7c0.5,0.7,1,1.4,1.4,2.1c4.5,7.3,8.5,15.4,12.1,24.4c-2.2-35.9-13.3-79.8-37.4-133.3 C526.9,610.6,241.7,543.5,113.1,672.1C-0.8,786,109,1070.6,415,1165.5c0-0.1,0-0.1,0.1-0.2C416.7,1160.6,418.4,1156,420.1,1151.5z"/>
    <path fill="#23B9E4" d="M680.8,1004.7c4.5,7.3,8.5,15.4,12.1,24.4c9.5,155.7-149.3,163.1-149.3,163.1c-46.2-5.1-89-14.4-128.7-26.7 c-4.6,13.6-8.4,28-11.2,43.5c-33.6,190.1,123,290.8,234.9,173.3c80.2-84.2,91.4-260.2,54.2-353.2 C689.4,1020.1,685.3,1012,680.8,1004.7z"/>
    <path fill="#23B9E4" d="M679.4,1002.5c-1.7-2.7-3.5-5.3-5.4-7.7C675.9,997.3,677.7,999.9,679.4,1002.5z"/>
    <path fill="#23B9E4" d="M666.7,986.4c1.7,1.8,3.4,3.7,5.1,5.6C670.1,990.1,668.5,988.2,666.7,986.4z"/>
    <path fill="#23B9E4" d="M646.7,972.5c-2-0.9-4.2-1.5-6.3-2.1C642.6,971,644.7,971.6,646.7,972.5z"/>
    <path fill="#23B9E4" d="M637.4,969.6c-3.2-0.6-6.5-1-9.8-1C630.9,968.5,634.2,968.9,637.4,969.6z"/>
    <path fill="#23B9E4" d="M627.1,968.7c-0.5,0.1-1.6,0.5-3.1,0.9C625.4,969.1,626.5,968.8,627.1,968.7z"/>
    <path fill="#23B9E4" d="M623.4,969.7c-0.7,0.2-1.6,0.5-2.5,0.8C621.9,970.2,622.7,970,623.4,969.7z"/>
    <path fill="#23B9E4" d="M663.9,983.8c-1.7-1.5-3.4-2.9-5.2-4.3C660.5,980.8,662.2,982.2,663.9,983.8z"/>
    <path fill="#23B9E4" d="M620.4,970.7c-1,0.3-2.1,0.7-3.3,1.1C618.3,971.4,619.4,971,620.4,970.7z"/>
    <path fill="#23B9E4" d="M655.6,977.2c-1.8-1.2-3.6-2.2-5.5-3.1C651.9,975.1,653.8,976.1,655.6,977.2z"/>
    <path fill="#23B9E4" d="M420.1,1151.5c-1.8,4.5-3.5,9.1-5.1,13.9C416.7,1160.6,418.4,1156,420.1,1151.5z"/>
    <path fill="#23B9E4" d="M616.7,972c-1.3,0.4-2.6,0.9-4.1,1.5C614,972.9,615.4,972.4,616.7,972z"/>
    <path fill="#23B9E4" d="M612.3,973.5c-1.5,0.6-3.2,1.2-4.9,1.8C609.1,974.7,610.7,974.1,612.3,973.5z"/>
    <path fill="#23B9E4" d="M420.2,1151.3c43.9-110.5,144-159.4,187.1-175.9C564.3,991.8,464.2,1040.7,420.2,1151.3z"/>
    <path fill="#CF7046" d="M543.7,1192.2c0,0,158.7-7.4,149.3-163.1c-3.6-9-7.6-17.1-12.1-24.4c-0.5-0.7-0.9-1.4-1.4-2.1 c-1.7-2.7-3.5-5.3-5.4-7.7c-0.7-1-1.5-1.9-2.3-2.8c-1.7-2-3.3-3.9-5.1-5.6c-0.9-0.9-1.9-1.8-2.8-2.7c-1.7-1.5-3.4-2.9-5.2-4.3 c-1-0.8-2.1-1.6-3.2-2.3c-1.8-1.2-3.6-2.2-5.5-3.1c-1.1-0.6-2.2-1.2-3.3-1.6c-2-0.9-4.2-1.5-6.3-2.1c-1-0.3-2-0.7-3.1-0.9 c-3.2-0.6-6.5-1-9.8-1c0,0-0.2,0-0.5,0.1c-0.6,0.2-1.6,0.5-3.1,0.9c-0.2,0.1-0.3,0.1-0.5,0.2c-0.7,0.2-1.6,0.5-2.5,0.8 c-0.2,0.1-0.3,0.1-0.5,0.2c-1,0.3-2.1,0.7-3.3,1.1c-0.2,0.1-0.3,0.1-0.4,0.2c-1.3,0.4-2.6,0.9-4.1,1.5c-0.1,0-0.2,0.1-0.3,0.1 c-1.5,0.6-3.2,1.2-4.9,1.8c0,0,0,0-0.1,0c-43,16.5-143.1,65.4-187.1,175.9c0,0.1-0.1,0.1-0.1,0.2c-1.8,4.5-3.5,9.1-5.1,13.9 c0,0.1,0,0.1-0.1,0.2c0,0,0,0,0,0c0,0,0,0,0,0C454.7,1177.8,497.5,1187.1,543.7,1192.2z"/>
    <path fill="#23B9E4" d="M687.9,850.6c-107-220.8-245-303.6-293.3-307.1c-44.3-3.2-36.4,25.6-37.4,27.6 C505.4,578.7,687.9,850.6,687.9,850.6z"/>
    <path fill="#23B9E4" d="M357.2,571.2c-0.2,0-0.3,0-0.5-0.1C356.9,571.4,357.1,571.4,357.2,571.2z"/>
    <path fill="#9AC323" d="M1070.3,585c-1.1-2,6.9-30.8-37.4-27.7c-48.3,3.4-186.3,86.3-293.3,307.1 C739.6,864.5,922.1,592.5,1070.3,585z"/>
    <path fill="#9AC323" d="M1070.9,585c-0.2,0-0.3,0-0.5,0.1C1070.4,585.2,1070.6,585.3,1070.9,585z"/>
    <path fill="#E44486" d="M1013,461.8c253.7-140.2,318.2-228.3,327.6-277.4c4.5-23.6-4.8-35.3-5.2-35.7l-8,6.6l0-0.1 c0.3,0.4,6.8,9.1,2.9,28.3c-8,38.5-60.4,124.6-322.2,269.3c-174.2,96.3-251.9,202-285.9,284.3c2.3-93.3,48.6-257,306.4-399.5 c253.7-140.2,318.2-228.3,327.6-277.4c4.5-23.6-4.8-35.3-5.2-35.8l-8,6.6l-0.1-0.1c0.3,0.4,6.8,9.1,2.9,28.3 c-8,38.5-60.4,124.6-322.2,269.3C818.8,441.7,747.3,567.9,723.4,653.9c-12.4,44.8-13.7,83-11.6,111.3c-1.4,4.4-2.7,8.8-3.9,13 c-26,93.6-3.4,159.5-2.5,162.2l9.7-3.4c-0.4-1.2-19.7-59.6,0.3-143.1c2.5,13.5,5.2,21.4,5.5,22.4l9.8-3.4c-0.2-0.6-5.7-17.2-7.9-45 C751.9,677.4,827.8,564.2,1013,461.8z"/>
  </g>
</svg>
